# Blender v2.77 (sub 0) OBJ File: 'Raumschiff einfach.blend'
# www.blender.org
mtllib Raumschiff_test.mtl
o Cube
v 1.000000 -1.000000 -1.000000
v 1.000000 -1.000000 1.000000
v 1.000000 1.000000 -0.999999
v 0.999999 1.000000 1.000001
v 1.000000 -1.000000 0.000000
v 1.000000 0.000000 -1.000000
v 1.000000 0.000000 1.000000
v 1.000000 1.000000 0.000001
v 0.775520 -0.823137 1.822833
v 2.998310 -0.095279 -2.616280
v 2.998310 -0.095279 -0.616280
v 2.998310 0.231327 -2.616279
v 2.998309 0.231327 -0.616279
v 2.998310 -0.095279 -1.616280
v 2.998310 0.000000 -2.616280
v 2.998309 0.000000 -0.616280
v 2.998310 0.231327 -1.616279
v 0.544049 -0.809934 -1.887990
v 0.775519 0.483016 1.822834
v 0.775520 -0.000000 1.822834
v 0.110182 -0.119406 2.992849
v 0.110182 0.117075 2.992849
v 0.110182 -0.000001 2.992849
v 4.605538 -0.048047 -5.000354
v 4.605538 -0.048047 -3.672076
v 4.605538 0.168864 -5.000354
v 4.605538 0.168864 -3.672076
v 4.605538 -0.048047 -4.336215
v 4.605538 0.015231 -5.000354
v 4.605538 0.015231 -3.672076
v 4.605538 0.168864 -4.336215
v 4.605538 0.015231 -4.336215
v 0.544050 0.688324 -1.887990
v 0.544050 0.000000 -1.887990
v -1.000000 -1.000000 -1.000000
v -1.000000 -1.000000 1.000000
v -1.000000 1.000000 -0.999999
v -0.999999 1.000000 1.000001
v -1.000000 -1.000000 0.000000
v 0.000000 -1.000000 -1.000000
v -1.000000 0.000000 -1.000000
v 0.000000 -1.000000 1.000000
v -1.000000 0.000000 1.000000
v -1.000000 1.000000 0.000001
v 0.000000 1.000000 -1.000000
v 0.000000 1.000000 1.000000
v 0.000000 -1.000000 -0.000000
v 0.000000 1.000000 0.000000
v -0.775520 -0.823137 1.822833
v 0.000000 0.000000 1.000000
v 0.000000 0.000000 -1.000000
v -2.998310 -0.095279 -2.616280
v -2.998310 -0.095279 -0.616280
v -2.998310 0.231327 -2.616279
v -2.998309 0.231327 -0.616279
v -2.998310 -0.095279 -1.616280
v -2.998310 0.000000 -2.616280
v -2.998309 0.000000 -0.616280
v -2.998310 0.231327 -1.616279
v -0.544049 -0.809934 -1.887990
v -0.775519 0.483016 1.822834
v 0.000000 -0.823137 1.822833
v -0.775520 -0.000000 1.822834
v 0.000000 0.483016 1.822834
v 0.000000 -0.000000 1.822833
v -0.110182 -0.119406 2.992849
v -0.110182 0.117075 2.992849
v 0.000000 -0.080779 3.066456
v -0.110182 -0.000001 2.992849
v 0.000000 0.089485 3.066456
v 0.000000 -0.000001 3.066456
v -4.605538 -0.048047 -5.000354
v -4.605538 -0.048047 -3.672076
v -4.605538 0.168864 -5.000354
v -4.605538 0.168864 -3.672076
v -4.605538 -0.048047 -4.336215
v -4.605538 0.015231 -5.000354
v -4.605538 0.015231 -3.672076
v -4.605538 0.168864 -4.336215
v -4.605538 0.015231 -4.336215
v -0.544050 0.688324 -1.887990
v 0.000000 -0.809934 -1.887990
v -0.544050 0.000000 -1.887990
v 0.000000 0.688324 -1.887990
v 0.000000 0.000000 -1.887990
vn 0.3590 0.9333 0.0000
vn 0.0000 -1.0000 0.0000
vn 0.0000 1.0000 0.0000
vn 0.6289 0.0000 0.7775
vn -0.6289 0.0000 -0.7775
vn -0.0000 0.8467 0.5320
vn 0.8896 -0.0000 -0.4568
vn 0.8850 -0.0000 0.4655
vn 0.0388 0.9992 -0.0000
vn 0.0294 -0.9996 0.0000
vn -0.8292 0.0000 -0.5590
vn 0.4124 -0.9110 0.0000
vn -0.0000 0.9544 0.2985
vn 0.0414 -0.8579 0.5121
vn 0.9647 0.0000 0.2632
vn -0.0000 -0.9777 0.2101
vn 0.5555 0.0000 0.8315
vn 0.8693 -0.0000 0.4943
vn 1.0000 0.0000 0.0000
vn 0.0000 0.0000 -1.0000
vn 0.0000 0.9436 -0.3312
vn 0.0000 -0.9779 -0.2093
vn -0.3590 0.9333 0.0000
vn -0.6289 0.0000 0.7775
vn 0.6289 0.0000 -0.7775
vn -0.8896 -0.0000 -0.4568
vn -0.8850 0.0000 0.4655
vn -0.0388 0.9992 0.0000
vn -0.0294 -0.9996 -0.0000
vn 0.8292 0.0000 -0.5590
vn -0.4124 -0.9110 -0.0000
vn -0.0000 -0.8569 0.5154
vn -0.9647 0.0000 0.2632
vn -0.5555 0.0000 0.8315
vn -0.8693 0.0000 0.4943
vn -1.0000 -0.0000 0.0000
vn -0.0372 0.9527 0.3015
vn 0.0372 0.9527 0.3015
vn -0.0414 -0.8579 0.5121
usemtl Material
s off
f 8//1 13//1 17//1
f 1//2 47//2 40//2
f 5//2 42//2 47//2
f 48//3 4//3 8//3
f 45//3 8//3 3//3
f 7//4 11//4 16//4
f 6//5 12//5 15//5
f 6//5 10//5 1//5
f 46//6 19//6 4//6
f 6//7 33//7 3//7
f 6//7 18//7 34//7
f 16//8 27//8 13//8
f 12//9 31//9 26//9
f 14//10 25//10 11//10
f 15//11 24//11 10//11
f 5//12 11//12 2//12
f 7//4 13//4 4//4
f 3//1 17//1 12//1
f 1//12 14//12 5//12
f 64//13 22//13 19//13
f 62//14 21//14 68//14
f 7//15 9//15 2//15
f 42//16 9//16 62//16
f 7//15 19//15 20//15
f 23//17 68//17 21//17
f 23//17 70//17 71//17
f 20//18 22//18 23//18
f 20//18 21//18 9//18
f 31//19 30//19 32//19
f 32//19 25//19 28//19
f 29//19 28//19 24//19
f 26//19 32//19 29//19
f 10//10 28//10 14//10
f 16//8 25//8 30//8
f 15//11 26//11 29//11
f 17//9 27//9 31//9
f 34//20 84//20 33//20
f 18//20 85//20 34//20
f 45//21 33//21 84//21
f 40//22 18//22 1//22
f 44//23 55//23 38//23
f 35//2 47//2 39//2
f 39//2 42//2 36//2
f 38//3 48//3 44//3
f 44//3 45//3 37//3
f 43//24 53//24 36//24
f 41//25 54//25 37//25
f 52//25 41//25 35//25
f 50//19 62//19 42//19
f 61//6 46//6 38//6
f 81//26 41//26 37//26
f 41//26 60//26 35//26
f 75//27 58//27 55//27
f 54//28 79//28 59//28
f 73//29 56//29 53//29
f 72//30 57//30 52//30
f 53//31 39//31 36//31
f 55//24 43//24 38//24
f 37//23 59//23 44//23
f 56//31 35//31 39//31
f 67//13 64//13 61//13
f 62//32 66//32 49//32
f 49//33 43//33 36//33
f 42//16 49//16 36//16
f 64//19 50//19 46//19
f 43//33 61//33 38//33
f 68//34 69//34 66//34
f 69//34 70//34 67//34
f 65//19 68//19 62//19
f 63//35 67//35 61//35
f 66//35 63//35 49//35
f 70//19 65//19 64//19
f 78//36 79//36 80//36
f 73//36 80//36 76//36
f 76//36 77//36 72//36
f 80//36 74//36 77//36
f 76//29 52//29 56//29
f 58//27 73//27 53//27
f 57//30 74//30 54//30
f 59//28 75//28 55//28
f 84//20 83//20 81//20
f 85//20 60//20 83//20
f 45//21 81//21 37//21
f 82//19 51//19 40//19
f 60//22 40//22 35//22
f 51//19 84//19 45//19
f 8//1 4//1 13//1
f 1//2 5//2 47//2
f 5//2 2//2 42//2
f 48//3 46//3 4//3
f 45//3 48//3 8//3
f 7//4 2//4 11//4
f 6//5 3//5 12//5
f 6//5 15//5 10//5
f 46//6 64//6 19//6
f 6//7 34//7 33//7
f 6//7 1//7 18//7
f 16//8 30//8 27//8
f 12//9 17//9 31//9
f 14//10 28//10 25//10
f 15//11 29//11 24//11
f 5//12 14//12 11//12
f 7//4 16//4 13//4
f 3//1 8//1 17//1
f 1//12 10//12 14//12
f 64//37 70//37 22//37
f 62//32 9//32 21//32
f 7//15 20//15 9//15
f 42//16 2//16 9//16
f 7//15 4//15 19//15
f 23//17 71//17 68//17
f 23//17 22//17 70//17
f 20//18 19//18 22//18
f 20//18 23//18 21//18
f 31//19 27//19 30//19
f 32//19 30//19 25//19
f 29//19 32//19 28//19
f 26//19 31//19 32//19
f 10//10 24//10 28//10
f 16//8 11//8 25//8
f 15//11 12//11 26//11
f 17//9 13//9 27//9
f 34//20 85//20 84//20
f 18//20 82//20 85//20
f 45//21 3//21 33//21
f 40//22 82//22 18//22
f 44//23 59//23 55//23
f 35//2 40//2 47//2
f 39//2 47//2 42//2
f 38//3 46//3 48//3
f 44//3 48//3 45//3
f 43//24 58//24 53//24
f 41//25 57//25 54//25
f 52//25 57//25 41//25
f 50//19 65//19 62//19
f 61//6 64//6 46//6
f 81//26 83//26 41//26
f 41//26 83//26 60//26
f 75//27 78//27 58//27
f 54//28 74//28 79//28
f 73//29 76//29 56//29
f 72//30 77//30 57//30
f 53//31 56//31 39//31
f 55//24 58//24 43//24
f 37//23 54//23 59//23
f 56//31 52//31 35//31
f 67//38 70//38 64//38
f 62//39 68//39 66//39
f 49//33 63//33 43//33
f 42//16 62//16 49//16
f 64//19 65//19 50//19
f 43//33 63//33 61//33
f 68//34 71//34 69//34
f 69//34 71//34 70//34
f 65//19 71//19 68//19
f 63//35 69//35 67//35
f 66//35 69//35 63//35
f 70//19 71//19 65//19
f 78//36 75//36 79//36
f 73//36 78//36 80//36
f 76//36 80//36 77//36
f 80//36 79//36 74//36
f 76//29 72//29 52//29
f 58//27 78//27 73//27
f 57//30 77//30 74//30
f 59//28 79//28 75//28
f 84//20 85//20 83//20
f 85//20 82//20 60//20
f 45//21 84//21 81//21
f 82//19 85//19 51//19
f 60//22 82//22 40//22
f 51//19 85//19 84//19
